<svg width="90" height="45" viewBox="0 0 90 45" fill="none" xmlns="http://www.w3.org/2000/svg">
<path d="M7.42033 34.798H8.82033V44.598H7.42033V34.798ZM1.79233 44.598H0.392334V34.798H1.79233V44.598ZM7.54633 40.23H1.65233V39.012H7.54633V40.23Z" fill="#191C21"/>
<path d="M14.3997 44.682C13.765 44.682 13.205 44.5653 12.7197 44.332C12.2437 44.0987 11.8703 43.744 11.5997 43.268C11.3383 42.7827 11.2077 42.176 11.2077 41.448V37.178H12.5517V41.294C12.5517 42.022 12.7243 42.568 13.0697 42.932C13.4243 43.296 13.919 43.478 14.5537 43.478C15.0203 43.478 15.4263 43.3847 15.7717 43.198C16.117 43.002 16.383 42.722 16.5697 42.358C16.7563 41.9847 16.8497 41.5367 16.8497 41.014V37.178H18.1937V44.598H16.9197V42.596L17.1297 43.128C16.887 43.6227 16.523 44.0053 16.0377 44.276C15.5523 44.5467 15.0063 44.682 14.3997 44.682Z" fill="#191C21"/>
<path d="M29.7543 37.108C30.3516 37.108 30.8789 37.2247 31.3363 37.458C31.7936 37.6913 32.1483 38.046 32.4003 38.522C32.6616 38.998 32.7923 39.6 32.7923 40.328V44.598H31.4483V40.482C31.4483 39.7633 31.2803 39.222 30.9443 38.858C30.6083 38.494 30.1369 38.312 29.5303 38.312C29.0823 38.312 28.6903 38.4053 28.3543 38.592C28.0183 38.7787 27.7569 39.054 27.5703 39.418C27.3929 39.782 27.3043 40.2347 27.3043 40.776V44.598H25.9603V40.482C25.9603 39.7633 25.7923 39.222 25.4563 38.858C25.1296 38.494 24.6583 38.312 24.0423 38.312C23.6036 38.312 23.2163 38.4053 22.8803 38.592C22.5443 38.7787 22.2829 39.054 22.0963 39.418C21.9096 39.782 21.8163 40.2347 21.8163 40.776V44.598H20.4723V37.178H21.7603V39.152L21.5503 38.648C21.7836 38.1627 22.1429 37.7847 22.6283 37.514C23.1136 37.2433 23.6783 37.108 24.3223 37.108C25.0316 37.108 25.6429 37.2853 26.1563 37.64C26.6696 37.9853 27.0056 38.5127 27.1643 39.222L26.6183 38.998C26.8423 38.4287 27.2343 37.9713 27.7943 37.626C28.3543 37.2807 29.0076 37.108 29.7543 37.108Z" fill="#191C21"/>
<path d="M39.5912 44.598V43.03L39.5212 42.736V40.062C39.5212 39.4927 39.3532 39.054 39.0172 38.746C38.6906 38.4287 38.1959 38.27 37.5332 38.27C37.0946 38.27 36.6652 38.3447 36.2452 38.494C35.8252 38.634 35.4706 38.8253 35.1812 39.068L34.6212 38.06C35.0039 37.752 35.4612 37.5187 35.9932 37.36C36.5346 37.192 37.0992 37.108 37.6872 37.108C38.7046 37.108 39.4886 37.3553 40.0392 37.85C40.5899 38.3447 40.8652 39.1007 40.8652 40.118V44.598H39.5912ZM37.1552 44.682C36.6046 44.682 36.1192 44.5887 35.6992 44.402C35.2886 44.2153 34.9712 43.9587 34.7472 43.632C34.5232 43.296 34.4112 42.918 34.4112 42.498C34.4112 42.0967 34.5046 41.7327 34.6912 41.406C34.8872 41.0793 35.1999 40.818 35.6292 40.622C36.0679 40.426 36.6559 40.328 37.3932 40.328H39.7452V41.294H37.4492C36.7772 41.294 36.3246 41.406 36.0912 41.63C35.8579 41.854 35.7412 42.1247 35.7412 42.442C35.7412 42.806 35.8859 43.1 36.1752 43.324C36.4646 43.5387 36.8659 43.646 37.3792 43.646C37.8832 43.646 38.3219 43.534 38.6952 43.31C39.0779 43.086 39.3532 42.7593 39.5212 42.33L39.7872 43.254C39.6099 43.6927 39.2972 44.0427 38.8492 44.304C38.4012 44.556 37.8366 44.682 37.1552 44.682Z" fill="#191C21"/>
<path d="M47.0344 37.108C47.6411 37.108 48.1731 37.2247 48.6304 37.458C49.0971 37.6913 49.4611 38.046 49.7224 38.522C49.9838 38.998 50.1144 39.6 50.1144 40.328V44.598H48.7704V40.482C48.7704 39.7633 48.5931 39.222 48.2384 38.858C47.8931 38.494 47.4031 38.312 46.7684 38.312C46.2924 38.312 45.8771 38.4053 45.5224 38.592C45.1678 38.7787 44.8924 39.054 44.6964 39.418C44.5098 39.782 44.4164 40.2347 44.4164 40.776V44.598H43.0724V37.178H44.3604V39.18L44.1504 38.648C44.3931 38.1627 44.7664 37.7847 45.2704 37.514C45.7744 37.2433 46.3624 37.108 47.0344 37.108Z" fill="#191C21"/>
<path d="M57.9435 44.598V36.016H54.5835V34.798H62.6895V36.016H59.3295V44.598H57.9435Z" fill="#191C21"/>
<path d="M63.5606 44.598V37.178H64.8486V39.194L64.7226 38.69C64.9279 38.1767 65.2732 37.7847 65.7586 37.514C66.2439 37.2433 66.8412 37.108 67.5506 37.108V38.41C67.4946 38.4007 67.4386 38.396 67.3826 38.396C67.3359 38.396 67.2892 38.396 67.2426 38.396C66.5239 38.396 65.9546 38.6107 65.5346 39.04C65.1146 39.4693 64.9046 40.09 64.9046 40.902V44.598H63.5606Z" fill="#191C21"/>
<path d="M68.927 44.598V37.178H70.271V44.598H68.927ZM69.599 35.75C69.3377 35.75 69.1184 35.666 68.941 35.498C68.773 35.33 68.689 35.1247 68.689 34.882C68.689 34.63 68.773 34.42 68.941 34.252C69.1184 34.084 69.3377 34 69.599 34C69.8604 34 70.075 34.084 70.243 34.252C70.4204 34.4107 70.509 34.6113 70.509 34.854C70.509 35.106 70.425 35.3207 70.257 35.498C70.089 35.666 69.8697 35.75 69.599 35.75Z" fill="#191C21"/>
<path d="M74.5032 44.598L71.2552 37.178H72.6552L75.5392 43.898H74.8672L77.8072 37.178H79.1232L75.8752 44.598H74.5032Z" fill="#191C21"/>
<path d="M80.0975 44.598V37.178H81.4415V44.598H80.0975ZM80.7695 35.75C80.5082 35.75 80.2888 35.666 80.1115 35.498C79.9435 35.33 79.8595 35.1247 79.8595 34.882C79.8595 34.63 79.9435 34.42 80.1115 34.252C80.2888 34.084 80.5082 34 80.7695 34C81.0308 34 81.2455 34.084 81.4135 34.252C81.5908 34.4107 81.6795 34.6113 81.6795 34.854C81.6795 35.106 81.5955 35.3207 81.4275 35.498C81.2595 35.666 81.0402 35.75 80.7695 35.75Z" fill="#191C21"/>
<path d="M88.3337 44.598V43.03L88.2637 42.736V40.062C88.2637 39.4927 88.0957 39.054 87.7597 38.746C87.433 38.4287 86.9383 38.27 86.2757 38.27C85.837 38.27 85.4077 38.3447 84.9877 38.494C84.5677 38.634 84.213 38.8253 83.9237 39.068L83.3637 38.06C83.7463 37.752 84.2037 37.5187 84.7357 37.36C85.277 37.192 85.8417 37.108 86.4297 37.108C87.447 37.108 88.231 37.3553 88.7817 37.85C89.3323 38.3447 89.6077 39.1007 89.6077 40.118V44.598H88.3337ZM85.8977 44.682C85.347 44.682 84.8617 44.5887 84.4417 44.402C84.031 44.2153 83.7137 43.9587 83.4897 43.632C83.2657 43.296 83.1537 42.918 83.1537 42.498C83.1537 42.0967 83.247 41.7327 83.4337 41.406C83.6297 41.0793 83.9423 40.818 84.3717 40.622C84.8103 40.426 85.3983 40.328 86.1357 40.328H88.4877V41.294H86.1917C85.5197 41.294 85.067 41.406 84.8337 41.63C84.6003 41.854 84.4837 42.1247 84.4837 42.442C84.4837 42.806 84.6283 43.1 84.9177 43.324C85.207 43.5387 85.6083 43.646 86.1217 43.646C86.6257 43.646 87.0643 43.534 87.4377 43.31C87.8203 43.086 88.0957 42.7593 88.2637 42.33L88.5297 43.254C88.3523 43.6927 88.0397 44.0427 87.5917 44.304C87.1437 44.556 86.579 44.682 85.8977 44.682Z" fill="#191C21"/>
<path d="M32.3923 4C32.3923 1.79086 34.1832 0 36.3923 0H53.3923C55.6015 0 57.3923 1.79086 57.3923 4V21C57.3923 23.2091 55.6015 25 53.3923 25H36.3923C34.1832 25 32.3923 23.2091 32.3923 21V4Z" fill="#0B0B0B"/>
<path d="M44.0394 7.88235H46.8521L46.8521 15.4586C46.8521 15.9693 46.9528 16.3767 47.1542 16.6809C47.3681 16.9851 47.7897 17.1373 48.419 17.1373C48.721 17.1373 49.0293 17.1155 49.344 17.0721C49.6712 17.0177 49.9669 16.9471 50.2312 16.8602L50.6276 19.207C50.2878 19.3265 49.9103 19.4298 49.495 19.5167C49.0797 19.6036 48.57 19.6471 47.9659 19.6471C47.1982 19.6471 46.5627 19.5601 46.0593 19.3863C45.5559 19.2016 45.1532 18.9517 44.8511 18.6366C44.5491 18.3107 44.3351 17.9195 44.2093 17.4632C44.096 17.0069 44.0394 16.5017 44.0394 15.9475V7.88235Z" fill="white"/>
<path d="M38.0688 6H40.8923V17.2941H38.0688V6Z" fill="white"/>
<path d="M39.3335 10.7059H48.7453V12.8235H39.3335V10.7059Z" fill="white"/>
<path d="M54.3923 17.9412C54.3923 18.7209 53.7603 19.3529 52.9806 19.3529C52.2009 19.3529 51.5688 18.7209 51.5688 17.9412C51.5688 17.1615 52.2009 16.5294 52.9806 16.5294C53.7603 16.5294 54.3923 17.1615 54.3923 17.9412Z" fill="white"/>
</svg>
