<svg width="21" height="22" viewBox="0 0 21 22" fill="none" xmlns="http://www.w3.org/2000/svg">
<path d="M20.9985 10.7634C21.0786 16.4272 16.5499 21.409 10.6997 21.5059C4.59113 21.6102 0.0551681 16.4979 0.000561799 10.8752C-0.0576849 5.06241 4.51468 0.117813 10.2811 0.0023026C16.357 -0.124386 21.0968 4.99534 20.9985 10.7634ZM16.6664 4.73451C14.5877 2.42057 11.0601 1.31763 7.71097 2.50255C4.32902 3.69864 2.29038 6.86586 2.0574 9.72754C3.03667 9.72754 4.01594 9.72754 5.00249 9.72754C5.21 8.54635 5.69781 7.51794 6.49507 6.65347C7.61631 5.43875 8.99603 4.76804 10.6306 4.74196C12.5527 4.71215 14.4749 4.73451 16.397 4.73451C16.4771 4.73451 16.5535 4.73451 16.6664 4.73451ZM2.04284 11.7807C2.44328 15.4174 5.07166 18.4281 8.57374 19.2628C11.8064 20.0341 14.9408 18.7523 16.6482 16.7774C16.5717 16.7774 16.5062 16.7774 16.4407 16.7774C14.5914 16.7774 12.7384 16.7811 10.889 16.7737C10.5578 16.7737 10.2192 16.7588 9.89522 16.6992C7.79834 16.3303 6.30576 15.1379 5.4175 13.1705C5.22092 12.7308 5.11171 12.2501 4.95517 11.7807C4.00502 11.7807 3.02939 11.7807 2.04284 11.7807ZM18.9781 9.73127C18.8688 8.73266 18.5922 7.80485 18.1772 6.9143C18.1189 6.79134 18.0534 6.74663 17.9187 6.75035C15.5597 6.75408 13.2007 6.74663 10.8417 6.75781C9.52025 6.76153 8.45361 7.31673 7.65272 8.39358C7.35785 8.78856 7.15034 9.23197 7.03021 9.73127C11.0165 9.73127 14.9845 9.73127 18.9781 9.73127ZM7.04113 11.7807C7.04477 11.8216 7.04477 11.8477 7.05205 11.8701C7.39061 13.3121 8.8941 14.6237 10.3503 14.7169C10.9728 14.7578 11.5989 14.7541 12.2214 14.7541C14.1181 14.7578 16.0184 14.7578 17.9151 14.7504C17.9915 14.7504 18.108 14.7094 18.1371 14.6535C18.5849 13.7518 18.8652 12.7979 18.9781 11.7807C14.9954 11.7807 11.0274 11.7807 7.04113 11.7807Z" fill="white"/>
</svg>
