<svg width="25" height="27" viewBox="0 0 25 27" fill="none" xmlns="http://www.w3.org/2000/svg">
<rect width="25" height="26" rx="12.5" transform="matrix(1 0 0 -1 0 26.7667)" fill="#E7E7E7"/>
<path d="M9.07243 14.1915L15.0782 20.1971C15.3127 20.4316 15.693 20.4316 15.9275 20.197C16.162 19.9625 16.162 19.5823 15.9275 19.3477L10.3464 13.7668L15.9275 8.18554C16.162 7.95099 16.162 7.57075 15.9275 7.33621C15.8102 7.21893 15.6565 7.16032 15.5028 7.16032C15.3491 7.16032 15.1954 7.21893 15.0781 7.33625L9.07243 13.3422C8.95977 13.4548 8.89651 13.6075 8.89651 13.7668C8.89651 13.9261 8.95977 14.0789 9.07243 14.1915Z" fill="#191C21"/>
</svg>
