<svg width="27" height="29" viewBox="0 0 27 29" fill="none" xmlns="http://www.w3.org/2000/svg">
<rect width="27" height="28" rx="13.5" transform="matrix(1 0 0 -1 0 28.7667)" fill="#E7E7E7"/>
<path d="M20.6763 12.9889H19.1794C18.9388 12.9889 18.7406 12.8564 18.6484 12.6342C18.5563 12.412 18.6031 12.1779 18.7729 12.0078L19.8313 10.9498C19.9868 10.7942 20.0724 10.5871 20.0724 10.3673C20.0724 10.1471 19.9868 9.94029 19.8313 9.78444L18.4822 8.4354C18.1711 8.12429 17.6286 8.1237 17.3169 8.4354L16.2588 9.49348C16.0887 9.66326 15.8541 9.71066 15.6324 9.61822C15.4102 9.52607 15.2778 9.32785 15.2778 9.08726V7.59037C15.2778 7.13614 14.9083 6.76666 14.4541 6.76666H12.5459C12.0917 6.76666 11.7222 7.13614 11.7222 7.59037V9.08726C11.7222 9.32785 11.5898 9.52607 11.3676 9.61822C11.1459 9.71096 10.9113 9.66326 10.7412 9.49348L9.68311 8.4354C9.37141 8.1237 8.82889 8.12429 8.51778 8.4354L7.16874 9.78444C7.01319 9.94 6.92756 10.1471 6.92756 10.3673C6.92756 10.5871 7.01319 10.7939 7.16874 10.9498L8.22711 12.0078C8.39689 12.1779 8.44341 12.412 8.35156 12.6342C8.2597 12.8564 8.06119 12.9889 7.82059 12.9889H6.3237C5.86948 12.9889 5.5 13.3584 5.5 13.8126V15.7204C5.5 16.175 5.86948 16.5444 6.3237 16.5444H7.82059C8.06119 16.5444 8.25941 16.6769 8.35156 16.8991C8.4437 17.1213 8.39689 17.3554 8.22711 17.5255L7.16874 18.5836C7.01319 18.7391 6.92756 18.9462 6.92756 19.1661C6.92756 19.3862 7.01319 19.593 7.16874 19.7489L8.51778 21.0979C8.82919 21.4093 9.37141 21.4099 9.68311 21.0979L10.7412 20.0396C10.9113 19.8698 11.145 19.823 11.3676 19.9151C11.5898 20.0073 11.7222 20.2055 11.7222 20.4461V21.943C11.7222 22.3972 12.0917 22.7667 12.5459 22.7667H14.4538C14.908 22.7667 15.2775 22.3972 15.2775 21.943V20.4461C15.2775 20.2055 15.4099 20.0073 15.6321 19.9151C15.8547 19.8227 16.0884 19.8698 16.2585 20.0396L17.3166 21.0979C17.6283 21.4096 18.1708 21.409 18.4819 21.0979L19.831 19.7489C19.9865 19.5933 20.0721 19.3862 20.0721 19.1661C20.0721 18.9462 19.9865 18.7394 19.831 18.5836L18.7726 17.5255C18.6028 17.3554 18.5563 17.1213 18.6481 16.8991C18.74 16.6769 18.9388 16.5444 19.1794 16.5444H20.6763C21.1305 16.5444 21.5 16.175 21.5 15.7207V13.8126C21.5 13.3584 21.1305 12.9889 20.6763 12.9889ZM20.9074 15.7207C20.9074 15.8481 20.8037 15.9518 20.6763 15.9518H19.1794C18.6982 15.9518 18.2849 16.228 18.1009 16.6724C17.9166 17.1169 18.0135 17.6046 18.3539 17.9447L19.4123 19.0028C19.5027 19.0932 19.5027 19.2398 19.4123 19.3299L18.0633 20.679C17.9732 20.769 17.8265 20.7696 17.7361 20.679L16.6781 19.6206C16.3376 19.2801 15.8502 19.1838 15.4058 19.3676C14.9613 19.5516 14.6852 19.9649 14.6852 20.4461V21.943C14.6852 22.0704 14.5815 22.1741 14.4541 22.1741H12.5459C12.4185 22.1741 12.3148 22.0704 12.3148 21.943V20.4461C12.3148 19.9649 12.0387 19.5516 11.5942 19.3676C11.4452 19.3056 11.2917 19.2754 11.14 19.2754C10.8396 19.2754 10.5483 19.3939 10.3219 19.6203L9.26385 20.6787C9.17319 20.7693 9.02652 20.7687 8.93674 20.6787L7.5877 19.3296C7.49733 19.2393 7.49733 19.0926 7.5877 19.0025L8.64607 17.9444C8.98622 17.6043 9.08341 17.1166 8.89911 16.6721C8.71511 16.228 8.30178 15.9518 7.82059 15.9518H6.3237C6.1963 15.9518 6.09259 15.8481 6.09259 15.7207V13.8126C6.09259 13.6852 6.1963 13.5815 6.3237 13.5815H7.82059C8.30178 13.5815 8.71511 13.3053 8.89911 12.8609C9.08341 12.4164 8.98652 11.9287 8.64607 11.5886L7.5877 10.5305C7.49733 10.4401 7.49733 10.2935 7.5877 10.2034L8.93674 8.85437C9.02681 8.764 9.17348 8.764 9.26385 8.85437L10.3219 9.91244C10.6618 10.2523 11.1492 10.3498 11.5942 10.1655C12.0387 9.98177 12.3148 9.56844 12.3148 9.08726V7.59037C12.3148 7.46296 12.4185 7.35926 12.5459 7.35926H14.4538C14.5815 7.35926 14.6852 7.46296 14.6852 7.59037V9.08726C14.6852 9.56844 14.9613 9.98177 15.4058 10.1658C15.8508 10.3501 16.3379 10.2529 16.6781 9.91274L17.7361 8.85466C17.8268 8.76429 17.9735 8.76429 18.0633 8.85466L19.4123 10.2037C19.5027 10.2941 19.5027 10.4407 19.4123 10.5308L18.3539 11.5889C18.0138 11.929 17.9166 12.4167 18.1009 12.8612C18.2849 13.3056 18.6982 13.5818 19.1794 13.5818H20.6763C20.8037 13.5815 20.9074 13.6852 20.9074 13.8126V15.7207Z" fill="black"/>
<path d="M13.5002 12.1C12.0296 12.1 10.8335 13.2961 10.8335 14.7666C10.8335 16.2372 12.0296 17.4333 13.5002 17.4333C14.9707 17.4333 16.1668 16.2372 16.1668 14.7666C16.1668 13.2961 14.9707 12.1 13.5002 12.1ZM13.5002 16.8407C12.3568 16.8407 11.4261 15.91 11.4261 14.7666C11.4261 13.6232 12.3568 12.6926 13.5002 12.6926C14.6436 12.6926 15.5742 13.6232 15.5742 14.7666C15.5742 15.91 14.6436 16.8407 13.5002 16.8407Z" fill="black"/>
</svg>
